<?xml version="1.0" encoding="utf-8" standalone="no"?>
<!DOCTYPE svg PUBLIC "-//W3C//DTD SVG 1.1//EN"
  "http://www.w3.org/Graphics/SVG/1.1/DTD/svg11.dtd">
<svg xmlns:xlink="http://www.w3.org/1999/xlink" width="552.399375pt" height="417.8733pt" viewBox="0 0 552.399375 417.8733" xmlns="http://www.w3.org/2000/svg" version="1.1">
 <metadata>
  <rdf:RDF xmlns:dc="http://purl.org/dc/elements/1.1/" xmlns:cc="http://creativecommons.org/ns#" xmlns:rdf="http://www.w3.org/1999/02/22-rdf-syntax-ns#">
   <cc:Work>
    <dc:type rdf:resource="http://purl.org/dc/dcmitype/StillImage"/>
    <dc:date>2025-09-09T20:54:25.495383</dc:date>
    <dc:format>image/svg+xml</dc:format>
    <dc:creator>
     <cc:Agent>
      <dc:title>Matplotlib v3.10.1, https://matplotlib.org/</dc:title>
     </cc:Agent>
    </dc:creator>
   </cc:Work>
  </rdf:RDF>
 </metadata>
 <defs>
  <style type="text/css">*{stroke-linejoin: round; stroke-linecap: butt}</style>
 </defs>
 <g id="figure_1">
  <g id="patch_1">
   <path d="M 0 417.8733 
L 552.399375 417.8733 
L 552.399375 0 
L 0 0 
z
" style="fill: #ffffff"/>
  </g>
  <g id="axes_1">
   <g id="patch_2">
    <path d="M 71.77125 354.1978 
L 539.54625 354.1978 
L 539.54625 42.0258 
L 71.77125 42.0258 
z
" style="fill: #ffffff"/>
   </g>
   <g id="matplotlib.axis_1">
    <g id="xtick_1">
     <g id="line2d_1">
      <path d="M 142.101058 354.1978 
L 142.101058 42.0258 
" clip-path="url(#p2fe572eb2a)" style="fill: none; stroke: #cccccc; stroke-opacity: 0.3; stroke-linecap: round"/>
     </g>
     <g id="text_1">
      <!-- Position -->
      <g style="fill: #262626" transform="translate(102.756058 380.3628) scale(0.24 -0.24)">
       <defs>
        <path id="TimesNewRomanPSMT-50" d="M 1313 1984 
L 1313 750 
Q 1313 350 1400 253 
Q 1519 116 1759 116 
L 1922 116 
L 1922 0 
L 106 0 
L 106 116 
L 266 116 
Q 534 116 650 291 
Q 713 388 713 750 
L 713 3488 
Q 713 3888 628 3984 
Q 506 4122 266 4122 
L 106 4122 
L 106 4238 
L 1659 4238 
Q 2228 4238 2556 4120 
Q 2884 4003 3109 3725 
Q 3334 3447 3334 3066 
Q 3334 2547 2992 2222 
Q 2650 1897 2025 1897 
Q 1872 1897 1694 1919 
Q 1516 1941 1313 1984 
z
M 1313 2163 
Q 1478 2131 1606 2115 
Q 1734 2100 1825 2100 
Q 2150 2100 2386 2351 
Q 2622 2603 2622 3003 
Q 2622 3278 2509 3514 
Q 2397 3750 2190 3867 
Q 1984 3984 1722 3984 
Q 1563 3984 1313 3925 
L 1313 2163 
z
" transform="scale(0.015625)"/>
        <path id="TimesNewRomanPSMT-6f" d="M 1600 2947 
Q 2250 2947 2644 2453 
Q 2978 2031 2978 1484 
Q 2978 1100 2793 706 
Q 2609 313 2286 112 
Q 1963 -88 1566 -88 
Q 919 -88 538 428 
Q 216 863 216 1403 
Q 216 1797 411 2186 
Q 606 2575 925 2761 
Q 1244 2947 1600 2947 
z
M 1503 2744 
Q 1338 2744 1170 2645 
Q 1003 2547 900 2300 
Q 797 2053 797 1666 
Q 797 1041 1045 587 
Q 1294 134 1700 134 
Q 2003 134 2200 384 
Q 2397 634 2397 1244 
Q 2397 2006 2069 2444 
Q 1847 2744 1503 2744 
z
" transform="scale(0.015625)"/>
        <path id="TimesNewRomanPSMT-73" d="M 2050 2947 
L 2050 1972 
L 1947 1972 
Q 1828 2431 1642 2597 
Q 1456 2763 1169 2763 
Q 950 2763 815 2647 
Q 681 2531 681 2391 
Q 681 2216 781 2091 
Q 878 1963 1175 1819 
L 1631 1597 
Q 2266 1288 2266 781 
Q 2266 391 1970 151 
Q 1675 -88 1309 -88 
Q 1047 -88 709 6 
Q 606 38 541 38 
Q 469 38 428 -44 
L 325 -44 
L 325 978 
L 428 978 
Q 516 541 762 319 
Q 1009 97 1316 97 
Q 1531 97 1667 223 
Q 1803 350 1803 528 
Q 1803 744 1651 891 
Q 1500 1038 1047 1263 
Q 594 1488 453 1669 
Q 313 1847 313 2119 
Q 313 2472 555 2709 
Q 797 2947 1181 2947 
Q 1350 2947 1591 2875 
Q 1750 2828 1803 2828 
Q 1853 2828 1881 2850 
Q 1909 2872 1947 2947 
L 2050 2947 
z
" transform="scale(0.015625)"/>
        <path id="TimesNewRomanPSMT-69" d="M 928 4444 
Q 1059 4444 1151 4351 
Q 1244 4259 1244 4128 
Q 1244 3997 1151 3903 
Q 1059 3809 928 3809 
Q 797 3809 703 3903 
Q 609 3997 609 4128 
Q 609 4259 701 4351 
Q 794 4444 928 4444 
z
M 1188 2947 
L 1188 647 
Q 1188 378 1227 289 
Q 1266 200 1342 156 
Q 1419 113 1622 113 
L 1622 0 
L 231 0 
L 231 113 
Q 441 113 512 153 
Q 584 194 626 287 
Q 669 381 669 647 
L 669 1750 
Q 669 2216 641 2353 
Q 619 2453 572 2492 
Q 525 2531 444 2531 
Q 356 2531 231 2484 
L 188 2597 
L 1050 2947 
L 1188 2947 
z
" transform="scale(0.015625)"/>
        <path id="TimesNewRomanPSMT-74" d="M 1031 3803 
L 1031 2863 
L 1700 2863 
L 1700 2644 
L 1031 2644 
L 1031 788 
Q 1031 509 1111 412 
Q 1191 316 1316 316 
Q 1419 316 1516 380 
Q 1613 444 1666 569 
L 1788 569 
Q 1678 263 1478 108 
Q 1278 -47 1066 -47 
Q 922 -47 784 33 
Q 647 113 581 261 
Q 516 409 516 719 
L 516 2644 
L 63 2644 
L 63 2747 
Q 234 2816 414 2980 
Q 594 3144 734 3369 
Q 806 3488 934 3803 
L 1031 3803 
z
" transform="scale(0.015625)"/>
        <path id="TimesNewRomanPSMT-6e" d="M 1034 2341 
Q 1538 2947 1994 2947 
Q 2228 2947 2397 2830 
Q 2566 2713 2666 2444 
Q 2734 2256 2734 1869 
L 2734 647 
Q 2734 375 2778 278 
Q 2813 200 2889 156 
Q 2966 113 3172 113 
L 3172 0 
L 1756 0 
L 1756 113 
L 1816 113 
Q 2016 113 2095 173 
Q 2175 234 2206 353 
Q 2219 400 2219 647 
L 2219 1819 
Q 2219 2209 2117 2386 
Q 2016 2563 1775 2563 
Q 1403 2563 1034 2156 
L 1034 647 
Q 1034 356 1069 288 
Q 1113 197 1189 155 
Q 1266 113 1500 113 
L 1500 0 
L 84 0 
L 84 113 
L 147 113 
Q 366 113 442 223 
Q 519 334 519 647 
L 519 1709 
Q 519 2225 495 2337 
Q 472 2450 423 2490 
Q 375 2531 294 2531 
Q 206 2531 84 2484 
L 38 2597 
L 900 2947 
L 1034 2947 
L 1034 2341 
z
" transform="scale(0.015625)"/>
       </defs>
       <use xlink:href="#TimesNewRomanPSMT-50"/>
       <use xlink:href="#TimesNewRomanPSMT-6f" transform="translate(55.615234 0)"/>
       <use xlink:href="#TimesNewRomanPSMT-73" transform="translate(105.615234 0)"/>
       <use xlink:href="#TimesNewRomanPSMT-69" transform="translate(144.53125 0)"/>
       <use xlink:href="#TimesNewRomanPSMT-74" transform="translate(172.314453 0)"/>
       <use xlink:href="#TimesNewRomanPSMT-69" transform="translate(200.097656 0)"/>
       <use xlink:href="#TimesNewRomanPSMT-6f" transform="translate(227.880859 0)"/>
       <use xlink:href="#TimesNewRomanPSMT-6e" transform="translate(277.880859 0)"/>
      </g>
      <!-- Control -->
      <g style="fill: #262626" transform="translate(105.433558 405.49455) scale(0.24 -0.24)">
       <defs>
        <path id="TimesNewRomanPSMT-43" d="M 3853 4334 
L 3950 2894 
L 3853 2894 
Q 3659 3541 3300 3825 
Q 2941 4109 2438 4109 
Q 2016 4109 1675 3895 
Q 1334 3681 1139 3212 
Q 944 2744 944 2047 
Q 944 1472 1128 1050 
Q 1313 628 1683 403 
Q 2053 178 2528 178 
Q 2941 178 3256 354 
Q 3572 531 3950 1056 
L 4047 994 
Q 3728 428 3303 165 
Q 2878 -97 2294 -97 
Q 1241 -97 663 684 
Q 231 1266 231 2053 
Q 231 2688 515 3219 
Q 800 3750 1298 4042 
Q 1797 4334 2388 4334 
Q 2847 4334 3294 4109 
Q 3425 4041 3481 4041 
Q 3566 4041 3628 4100 
Q 3709 4184 3744 4334 
L 3853 4334 
z
" transform="scale(0.015625)"/>
        <path id="TimesNewRomanPSMT-72" d="M 1038 2947 
L 1038 2303 
Q 1397 2947 1775 2947 
Q 1947 2947 2059 2842 
Q 2172 2738 2172 2600 
Q 2172 2478 2090 2393 
Q 2009 2309 1897 2309 
Q 1788 2309 1652 2417 
Q 1516 2525 1450 2525 
Q 1394 2525 1328 2463 
Q 1188 2334 1038 2041 
L 1038 669 
Q 1038 431 1097 309 
Q 1138 225 1241 169 
Q 1344 113 1538 113 
L 1538 0 
L 72 0 
L 72 113 
Q 291 113 397 181 
Q 475 231 506 341 
Q 522 394 522 644 
L 522 1753 
Q 522 2253 501 2348 
Q 481 2444 426 2487 
Q 372 2531 291 2531 
Q 194 2531 72 2484 
L 41 2597 
L 906 2947 
L 1038 2947 
z
" transform="scale(0.015625)"/>
        <path id="TimesNewRomanPSMT-6c" d="M 1184 4444 
L 1184 647 
Q 1184 378 1223 290 
Q 1263 203 1344 158 
Q 1425 113 1647 113 
L 1647 0 
L 244 0 
L 244 113 
Q 441 113 512 153 
Q 584 194 625 287 
Q 666 381 666 647 
L 666 3247 
Q 666 3731 644 3842 
Q 622 3953 573 3993 
Q 525 4034 450 4034 
Q 369 4034 244 3984 
L 191 4094 
L 1044 4444 
L 1184 4444 
z
" transform="scale(0.015625)"/>
       </defs>
       <use xlink:href="#TimesNewRomanPSMT-43"/>
       <use xlink:href="#TimesNewRomanPSMT-6f" transform="translate(66.699219 0)"/>
       <use xlink:href="#TimesNewRomanPSMT-6e" transform="translate(116.699219 0)"/>
       <use xlink:href="#TimesNewRomanPSMT-74" transform="translate(166.699219 0)"/>
       <use xlink:href="#TimesNewRomanPSMT-72" transform="translate(194.482422 0)"/>
       <use xlink:href="#TimesNewRomanPSMT-6f" transform="translate(227.783203 0)"/>
       <use xlink:href="#TimesNewRomanPSMT-6c" transform="translate(277.783203 0)"/>
      </g>
     </g>
    </g>
    <g id="xtick_2">
     <g id="line2d_2">
      <path d="M 305.65875 354.1978 
L 305.65875 42.0258 
" clip-path="url(#p2fe572eb2a)" style="fill: none; stroke: #cccccc; stroke-opacity: 0.3; stroke-linecap: round"/>
     </g>
     <g id="text_2">
      <!-- Static -->
      <g style="fill: #262626" transform="translate(278.330625 380.3628) scale(0.24 -0.24)">
       <defs>
        <path id="TimesNewRomanPSMT-53" d="M 2934 4334 
L 2934 2869 
L 2819 2869 
Q 2763 3291 2617 3541 
Q 2472 3791 2203 3937 
Q 1934 4084 1647 4084 
Q 1322 4084 1109 3886 
Q 897 3688 897 3434 
Q 897 3241 1031 3081 
Q 1225 2847 1953 2456 
Q 2547 2138 2764 1967 
Q 2981 1797 3098 1565 
Q 3216 1334 3216 1081 
Q 3216 600 2842 251 
Q 2469 -97 1881 -97 
Q 1697 -97 1534 -69 
Q 1438 -53 1133 45 
Q 828 144 747 144 
Q 669 144 623 97 
Q 578 50 556 -97 
L 441 -97 
L 441 1356 
L 556 1356 
Q 638 900 775 673 
Q 913 447 1195 297 
Q 1478 147 1816 147 
Q 2206 147 2432 353 
Q 2659 559 2659 841 
Q 2659 997 2573 1156 
Q 2488 1316 2306 1453 
Q 2184 1547 1640 1851 
Q 1097 2156 867 2337 
Q 638 2519 519 2737 
Q 400 2956 400 3219 
Q 400 3675 750 4004 
Q 1100 4334 1641 4334 
Q 1978 4334 2356 4169 
Q 2531 4091 2603 4091 
Q 2684 4091 2736 4139 
Q 2788 4188 2819 4334 
L 2934 4334 
z
" transform="scale(0.015625)"/>
        <path id="TimesNewRomanPSMT-61" d="M 1822 413 
Q 1381 72 1269 19 
Q 1100 -59 909 -59 
Q 613 -59 420 144 
Q 228 347 228 678 
Q 228 888 322 1041 
Q 450 1253 767 1440 
Q 1084 1628 1822 1897 
L 1822 2009 
Q 1822 2438 1686 2597 
Q 1550 2756 1291 2756 
Q 1094 2756 978 2650 
Q 859 2544 859 2406 
L 866 2225 
Q 866 2081 792 2003 
Q 719 1925 600 1925 
Q 484 1925 411 2006 
Q 338 2088 338 2228 
Q 338 2497 613 2722 
Q 888 2947 1384 2947 
Q 1766 2947 2009 2819 
Q 2194 2722 2281 2516 
Q 2338 2381 2338 1966 
L 2338 994 
Q 2338 584 2353 492 
Q 2369 400 2405 369 
Q 2441 338 2488 338 
Q 2538 338 2575 359 
Q 2641 400 2828 588 
L 2828 413 
Q 2478 -56 2159 -56 
Q 2006 -56 1915 50 
Q 1825 156 1822 413 
z
M 1822 616 
L 1822 1706 
Q 1350 1519 1213 1441 
Q 966 1303 859 1153 
Q 753 1003 753 825 
Q 753 600 887 451 
Q 1022 303 1197 303 
Q 1434 303 1822 616 
z
" transform="scale(0.015625)"/>
        <path id="TimesNewRomanPSMT-63" d="M 2631 1088 
Q 2516 522 2178 217 
Q 1841 -88 1431 -88 
Q 944 -88 581 321 
Q 219 731 219 1428 
Q 219 2103 620 2525 
Q 1022 2947 1584 2947 
Q 2006 2947 2278 2723 
Q 2550 2500 2550 2259 
Q 2550 2141 2473 2067 
Q 2397 1994 2259 1994 
Q 2075 1994 1981 2113 
Q 1928 2178 1911 2362 
Q 1894 2547 1784 2644 
Q 1675 2738 1481 2738 
Q 1169 2738 978 2506 
Q 725 2200 725 1697 
Q 725 1184 976 792 
Q 1228 400 1656 400 
Q 1963 400 2206 609 
Q 2378 753 2541 1131 
L 2631 1088 
z
" transform="scale(0.015625)"/>
       </defs>
       <use xlink:href="#TimesNewRomanPSMT-53"/>
       <use xlink:href="#TimesNewRomanPSMT-74" transform="translate(55.615234 0)"/>
       <use xlink:href="#TimesNewRomanPSMT-61" transform="translate(83.398438 0)"/>
       <use xlink:href="#TimesNewRomanPSMT-74" transform="translate(127.783203 0)"/>
       <use xlink:href="#TimesNewRomanPSMT-69" transform="translate(155.566406 0)"/>
       <use xlink:href="#TimesNewRomanPSMT-63" transform="translate(183.349609 0)"/>
      </g>
      <!-- Admittance -->
      <g style="fill: #262626" transform="translate(249.676875 405.49455) scale(0.24 -0.24)">
       <defs>
        <path id="TimesNewRomanPSMT-41" d="M 2928 1419 
L 1288 1419 
L 1000 750 
Q 894 503 894 381 
Q 894 284 986 211 
Q 1078 138 1384 116 
L 1384 0 
L 50 0 
L 50 116 
Q 316 163 394 238 
Q 553 388 747 847 
L 2238 4334 
L 2347 4334 
L 3822 809 
Q 4000 384 4145 257 
Q 4291 131 4550 116 
L 4550 0 
L 2878 0 
L 2878 116 
Q 3131 128 3220 200 
Q 3309 272 3309 375 
Q 3309 513 3184 809 
L 2928 1419 
z
M 2841 1650 
L 2122 3363 
L 1384 1650 
L 2841 1650 
z
" transform="scale(0.015625)"/>
        <path id="TimesNewRomanPSMT-64" d="M 2222 322 
Q 2013 103 1813 7 
Q 1613 -88 1381 -88 
Q 913 -88 563 304 
Q 213 697 213 1313 
Q 213 1928 600 2439 
Q 988 2950 1597 2950 
Q 1975 2950 2222 2709 
L 2222 3238 
Q 2222 3728 2198 3840 
Q 2175 3953 2125 3993 
Q 2075 4034 2000 4034 
Q 1919 4034 1784 3984 
L 1744 4094 
L 2597 4444 
L 2738 4444 
L 2738 1134 
Q 2738 631 2761 520 
Q 2784 409 2836 365 
Q 2888 322 2956 322 
Q 3041 322 3181 375 
L 3216 266 
L 2366 -88 
L 2222 -88 
L 2222 322 
z
M 2222 541 
L 2222 2016 
Q 2203 2228 2109 2403 
Q 2016 2578 1861 2667 
Q 1706 2756 1559 2756 
Q 1284 2756 1069 2509 
Q 784 2184 784 1559 
Q 784 928 1059 592 
Q 1334 256 1672 256 
Q 1956 256 2222 541 
z
" transform="scale(0.015625)"/>
        <path id="TimesNewRomanPSMT-6d" d="M 1050 2338 
Q 1363 2650 1419 2697 
Q 1559 2816 1721 2881 
Q 1884 2947 2044 2947 
Q 2313 2947 2506 2790 
Q 2700 2634 2766 2338 
Q 3088 2713 3309 2830 
Q 3531 2947 3766 2947 
Q 3994 2947 4170 2830 
Q 4347 2713 4450 2447 
Q 4519 2266 4519 1878 
L 4519 647 
Q 4519 378 4559 278 
Q 4591 209 4675 161 
Q 4759 113 4950 113 
L 4950 0 
L 3538 0 
L 3538 113 
L 3597 113 
Q 3781 113 3884 184 
Q 3956 234 3988 344 
Q 4000 397 4000 647 
L 4000 1878 
Q 4000 2228 3916 2372 
Q 3794 2572 3525 2572 
Q 3359 2572 3192 2489 
Q 3025 2406 2788 2181 
L 2781 2147 
L 2788 2013 
L 2788 647 
Q 2788 353 2820 281 
Q 2853 209 2943 161 
Q 3034 113 3253 113 
L 3253 0 
L 1806 0 
L 1806 113 
Q 2044 113 2133 169 
Q 2222 225 2256 338 
Q 2272 391 2272 647 
L 2272 1878 
Q 2272 2228 2169 2381 
Q 2031 2581 1784 2581 
Q 1616 2581 1450 2491 
Q 1191 2353 1050 2181 
L 1050 647 
Q 1050 366 1089 281 
Q 1128 197 1204 155 
Q 1281 113 1516 113 
L 1516 0 
L 100 0 
L 100 113 
Q 297 113 375 155 
Q 453 197 493 289 
Q 534 381 534 647 
L 534 1741 
Q 534 2213 506 2350 
Q 484 2453 437 2492 
Q 391 2531 309 2531 
Q 222 2531 100 2484 
L 53 2597 
L 916 2947 
L 1050 2947 
L 1050 2338 
z
" transform="scale(0.015625)"/>
        <path id="TimesNewRomanPSMT-65" d="M 681 1784 
Q 678 1147 991 784 
Q 1303 422 1725 422 
Q 2006 422 2214 576 
Q 2422 731 2563 1106 
L 2659 1044 
Q 2594 616 2278 264 
Q 1963 -88 1488 -88 
Q 972 -88 605 314 
Q 238 716 238 1394 
Q 238 2128 614 2539 
Q 991 2950 1559 2950 
Q 2041 2950 2350 2633 
Q 2659 2316 2659 1784 
L 681 1784 
z
M 681 1966 
L 2006 1966 
Q 1991 2241 1941 2353 
Q 1863 2528 1708 2628 
Q 1553 2728 1384 2728 
Q 1125 2728 920 2526 
Q 716 2325 681 1966 
z
" transform="scale(0.015625)"/>
       </defs>
       <use xlink:href="#TimesNewRomanPSMT-41"/>
       <use xlink:href="#TimesNewRomanPSMT-64" transform="translate(72.216797 0)"/>
       <use xlink:href="#TimesNewRomanPSMT-6d" transform="translate(122.216797 0)"/>
       <use xlink:href="#TimesNewRomanPSMT-69" transform="translate(200 0)"/>
       <use xlink:href="#TimesNewRomanPSMT-74" transform="translate(227.783203 0)"/>
       <use xlink:href="#TimesNewRomanPSMT-74" transform="translate(255.566406 0)"/>
       <use xlink:href="#TimesNewRomanPSMT-61" transform="translate(283.349609 0)"/>
       <use xlink:href="#TimesNewRomanPSMT-6e" transform="translate(327.734375 0)"/>
       <use xlink:href="#TimesNewRomanPSMT-63" transform="translate(377.734375 0)"/>
       <use xlink:href="#TimesNewRomanPSMT-65" transform="translate(422.119141 0)"/>
      </g>
     </g>
    </g>
    <g id="xtick_3">
     <g id="line2d_3">
      <path d="M 469.216442 354.1978 
L 469.216442 42.0258 
" clip-path="url(#p2fe572eb2a)" style="fill: none; stroke: #cccccc; stroke-opacity: 0.3; stroke-linecap: round"/>
     </g>
     <g id="text_3">
      <!-- Dynamic -->
      <g style="fill: #262626" transform="translate(425.228942 380.3628) scale(0.24 -0.24)">
       <defs>
        <path id="TimesNewRomanPSMT-44" d="M 109 0 
L 109 116 
L 269 116 
Q 538 116 650 288 
Q 719 391 719 750 
L 719 3488 
Q 719 3884 631 3984 
Q 509 4122 269 4122 
L 109 4122 
L 109 4238 
L 1834 4238 
Q 2784 4238 3279 4022 
Q 3775 3806 4076 3303 
Q 4378 2800 4378 2141 
Q 4378 1256 3841 663 
Q 3238 0 2003 0 
L 109 0 
z
M 1319 306 
Q 1716 219 1984 219 
Q 2709 219 3187 728 
Q 3666 1238 3666 2109 
Q 3666 2988 3187 3494 
Q 2709 4000 1959 4000 
Q 1678 4000 1319 3909 
L 1319 306 
z
" transform="scale(0.015625)"/>
        <path id="TimesNewRomanPSMT-79" d="M 38 2863 
L 1372 2863 
L 1372 2747 
L 1306 2747 
Q 1166 2747 1095 2686 
Q 1025 2625 1025 2534 
Q 1025 2413 1128 2197 
L 1825 753 
L 2466 2334 
Q 2519 2463 2519 2588 
Q 2519 2644 2497 2672 
Q 2472 2706 2419 2726 
Q 2366 2747 2231 2747 
L 2231 2863 
L 3163 2863 
L 3163 2747 
Q 3047 2734 2984 2696 
Q 2922 2659 2847 2556 
Q 2819 2513 2741 2316 
L 1575 -541 
Q 1406 -956 1132 -1168 
Q 859 -1381 606 -1381 
Q 422 -1381 303 -1275 
Q 184 -1169 184 -1031 
Q 184 -900 270 -820 
Q 356 -741 506 -741 
Q 609 -741 788 -809 
Q 913 -856 944 -856 
Q 1038 -856 1148 -759 
Q 1259 -663 1372 -384 
L 1575 113 
L 547 2272 
Q 500 2369 397 2513 
Q 319 2622 269 2659 
Q 197 2709 38 2747 
L 38 2863 
z
" transform="scale(0.015625)"/>
       </defs>
       <use xlink:href="#TimesNewRomanPSMT-44"/>
       <use xlink:href="#TimesNewRomanPSMT-79" transform="translate(72.216797 0)"/>
       <use xlink:href="#TimesNewRomanPSMT-6e" transform="translate(122.216797 0)"/>
       <use xlink:href="#TimesNewRomanPSMT-61" transform="translate(172.216797 0)"/>
       <use xlink:href="#TimesNewRomanPSMT-6d" transform="translate(216.601562 0)"/>
       <use xlink:href="#TimesNewRomanPSMT-69" transform="translate(294.384766 0)"/>
       <use xlink:href="#TimesNewRomanPSMT-63" transform="translate(322.167969 0)"/>
      </g>
      <!-- Admittance -->
      <g style="fill: #262626" transform="translate(413.234567 405.53955) scale(0.24 -0.24)">
       <use xlink:href="#TimesNewRomanPSMT-41"/>
       <use xlink:href="#TimesNewRomanPSMT-64" transform="translate(72.216797 0)"/>
       <use xlink:href="#TimesNewRomanPSMT-6d" transform="translate(122.216797 0)"/>
       <use xlink:href="#TimesNewRomanPSMT-69" transform="translate(200 0)"/>
       <use xlink:href="#TimesNewRomanPSMT-74" transform="translate(227.783203 0)"/>
       <use xlink:href="#TimesNewRomanPSMT-74" transform="translate(255.566406 0)"/>
       <use xlink:href="#TimesNewRomanPSMT-61" transform="translate(283.349609 0)"/>
       <use xlink:href="#TimesNewRomanPSMT-6e" transform="translate(327.734375 0)"/>
       <use xlink:href="#TimesNewRomanPSMT-63" transform="translate(377.734375 0)"/>
       <use xlink:href="#TimesNewRomanPSMT-65" transform="translate(422.119141 0)"/>
      </g>
     </g>
    </g>
   </g>
   <g id="matplotlib.axis_2">
    <g id="ytick_1">
     <g id="line2d_4">
      <path d="M 71.77125 354.1978 
L 539.54625 354.1978 
" clip-path="url(#p2fe572eb2a)" style="fill: none; stroke: #cccccc; stroke-opacity: 0.3; stroke-linecap: round"/>
     </g>
     <g id="text_4">
      <!-- 0.0 -->
      <g style="fill: #262626" transform="translate(32.27125 362.5303) scale(0.24 -0.24)">
       <defs>
        <path id="TimesNewRomanPSMT-30" d="M 231 2094 
Q 231 2819 450 3342 
Q 669 3866 1031 4122 
Q 1313 4325 1613 4325 
Q 2100 4325 2488 3828 
Q 2972 3213 2972 2159 
Q 2972 1422 2759 906 
Q 2547 391 2217 158 
Q 1888 -75 1581 -75 
Q 975 -75 572 641 
Q 231 1244 231 2094 
z
M 844 2016 
Q 844 1141 1059 588 
Q 1238 122 1591 122 
Q 1759 122 1940 273 
Q 2122 425 2216 781 
Q 2359 1319 2359 2297 
Q 2359 3022 2209 3506 
Q 2097 3866 1919 4016 
Q 1791 4119 1609 4119 
Q 1397 4119 1231 3928 
Q 1006 3669 925 3112 
Q 844 2556 844 2016 
z
" transform="scale(0.015625)"/>
        <path id="TimesNewRomanPSMT-2e" d="M 800 606 
Q 947 606 1047 504 
Q 1147 403 1147 259 
Q 1147 116 1045 14 
Q 944 -88 800 -88 
Q 656 -88 554 14 
Q 453 116 453 259 
Q 453 406 554 506 
Q 656 606 800 606 
z
" transform="scale(0.015625)"/>
       </defs>
       <use xlink:href="#TimesNewRomanPSMT-30"/>
       <use xlink:href="#TimesNewRomanPSMT-2e" transform="translate(50 0)"/>
       <use xlink:href="#TimesNewRomanPSMT-30" transform="translate(75 0)"/>
      </g>
     </g>
    </g>
    <g id="ytick_2">
     <g id="line2d_5">
      <path d="M 71.77125 289.699453 
L 539.54625 289.699453 
" clip-path="url(#p2fe572eb2a)" style="fill: none; stroke: #cccccc; stroke-opacity: 0.3; stroke-linecap: round"/>
     </g>
     <g id="text_5">
      <!-- 0.5 -->
      <g style="fill: #262626" transform="translate(32.27125 298.031953) scale(0.24 -0.24)">
       <defs>
        <path id="TimesNewRomanPSMT-35" d="M 2778 4238 
L 2534 3706 
L 1259 3706 
L 981 3138 
Q 1809 3016 2294 2522 
Q 2709 2097 2709 1522 
Q 2709 1188 2573 903 
Q 2438 619 2231 419 
Q 2025 219 1772 97 
Q 1413 -75 1034 -75 
Q 653 -75 479 54 
Q 306 184 306 341 
Q 306 428 378 495 
Q 450 563 559 563 
Q 641 563 702 538 
Q 763 513 909 409 
Q 1144 247 1384 247 
Q 1750 247 2026 523 
Q 2303 800 2303 1197 
Q 2303 1581 2056 1914 
Q 1809 2247 1375 2428 
Q 1034 2569 447 2591 
L 1259 4238 
L 2778 4238 
z
" transform="scale(0.015625)"/>
       </defs>
       <use xlink:href="#TimesNewRomanPSMT-30"/>
       <use xlink:href="#TimesNewRomanPSMT-2e" transform="translate(50 0)"/>
       <use xlink:href="#TimesNewRomanPSMT-35" transform="translate(75 0)"/>
      </g>
     </g>
    </g>
    <g id="ytick_3">
     <g id="line2d_6">
      <path d="M 71.77125 225.201106 
L 539.54625 225.201106 
" clip-path="url(#p2fe572eb2a)" style="fill: none; stroke: #cccccc; stroke-opacity: 0.3; stroke-linecap: round"/>
     </g>
     <g id="text_6">
      <!-- 1.0 -->
      <g style="fill: #262626" transform="translate(32.27125 233.533606) scale(0.24 -0.24)">
       <defs>
        <path id="TimesNewRomanPSMT-31" d="M 750 3822 
L 1781 4325 
L 1884 4325 
L 1884 747 
Q 1884 391 1914 303 
Q 1944 216 2037 169 
Q 2131 122 2419 116 
L 2419 0 
L 825 0 
L 825 116 
Q 1125 122 1212 167 
Q 1300 213 1334 289 
Q 1369 366 1369 747 
L 1369 3034 
Q 1369 3497 1338 3628 
Q 1316 3728 1258 3775 
Q 1200 3822 1119 3822 
Q 1003 3822 797 3725 
L 750 3822 
z
" transform="scale(0.015625)"/>
       </defs>
       <use xlink:href="#TimesNewRomanPSMT-31"/>
       <use xlink:href="#TimesNewRomanPSMT-2e" transform="translate(50 0)"/>
       <use xlink:href="#TimesNewRomanPSMT-30" transform="translate(75 0)"/>
      </g>
     </g>
    </g>
    <g id="ytick_4">
     <g id="line2d_7">
      <path d="M 71.77125 160.702759 
L 539.54625 160.702759 
" clip-path="url(#p2fe572eb2a)" style="fill: none; stroke: #cccccc; stroke-opacity: 0.3; stroke-linecap: round"/>
     </g>
     <g id="text_7">
      <!-- 1.5 -->
      <g style="fill: #262626" transform="translate(32.27125 169.035259) scale(0.24 -0.24)">
       <use xlink:href="#TimesNewRomanPSMT-31"/>
       <use xlink:href="#TimesNewRomanPSMT-2e" transform="translate(50 0)"/>
       <use xlink:href="#TimesNewRomanPSMT-35" transform="translate(75 0)"/>
      </g>
     </g>
    </g>
    <g id="ytick_5">
     <g id="line2d_8">
      <path d="M 71.77125 96.204412 
L 539.54625 96.204412 
" clip-path="url(#p2fe572eb2a)" style="fill: none; stroke: #cccccc; stroke-opacity: 0.3; stroke-linecap: round"/>
     </g>
     <g id="text_8">
      <!-- 2.0 -->
      <g style="fill: #262626" transform="translate(32.27125 104.536912) scale(0.24 -0.24)">
       <defs>
        <path id="TimesNewRomanPSMT-32" d="M 2934 816 
L 2638 0 
L 138 0 
L 138 116 
Q 1241 1122 1691 1759 
Q 2141 2397 2141 2925 
Q 2141 3328 1894 3587 
Q 1647 3847 1303 3847 
Q 991 3847 742 3664 
Q 494 3481 375 3128 
L 259 3128 
Q 338 3706 661 4015 
Q 984 4325 1469 4325 
Q 1984 4325 2329 3994 
Q 2675 3663 2675 3213 
Q 2675 2891 2525 2569 
Q 2294 2063 1775 1497 
Q 997 647 803 472 
L 1909 472 
Q 2247 472 2383 497 
Q 2519 522 2628 598 
Q 2738 675 2819 816 
L 2934 816 
z
" transform="scale(0.015625)"/>
       </defs>
       <use xlink:href="#TimesNewRomanPSMT-32"/>
       <use xlink:href="#TimesNewRomanPSMT-2e" transform="translate(50 0)"/>
       <use xlink:href="#TimesNewRomanPSMT-30" transform="translate(75 0)"/>
      </g>
     </g>
    </g>
    <g id="text_9">
     <!-- Distance (m) -->
     <g style="fill: #262626" transform="translate(23.1375 263.0918) rotate(-90) scale(0.24 -0.24)">
      <defs>
       <path id="TimesNewRomanPS-BoldMT-44" d="M 84 0 
L 84 116 
L 225 116 
Q 409 116 507 173 
Q 606 231 653 331 
Q 681 397 681 725 
L 681 3513 
Q 681 3838 647 3919 
Q 613 4000 508 4061 
Q 403 4122 225 4122 
L 84 4122 
L 84 4238 
L 1981 4238 
Q 2741 4238 3203 4031 
Q 3769 3778 4061 3265 
Q 4353 2753 4353 2106 
Q 4353 1659 4209 1282 
Q 4066 906 3837 661 
Q 3609 416 3311 267 
Q 3013 119 2581 38 
Q 2391 0 1981 0 
L 84 0 
z
M 1700 3997 
L 1700 691 
Q 1700 428 1725 368 
Q 1750 309 1809 278 
Q 1894 231 2053 231 
Q 2575 231 2850 588 
Q 3225 1069 3225 2081 
Q 3225 2897 2969 3384 
Q 2766 3766 2447 3903 
Q 2222 4000 1700 3997 
z
" transform="scale(0.015625)"/>
       <path id="TimesNewRomanPS-BoldMT-69" d="M 919 4338 
Q 1122 4338 1262 4195 
Q 1403 4053 1403 3853 
Q 1403 3653 1261 3512 
Q 1119 3372 919 3372 
Q 719 3372 578 3512 
Q 438 3653 438 3853 
Q 438 4053 578 4195 
Q 719 4338 919 4338 
z
M 1356 2922 
L 1356 606 
Q 1356 297 1428 211 
Q 1500 125 1709 113 
L 1709 0 
L 131 0 
L 131 113 
Q 325 119 419 225 
Q 481 297 481 606 
L 481 2313 
Q 481 2622 409 2708 
Q 338 2794 131 2806 
L 131 2922 
L 1356 2922 
z
" transform="scale(0.015625)"/>
       <path id="TimesNewRomanPS-BoldMT-73" d="M 2063 3003 
L 2109 2006 
L 2003 2006 
Q 1813 2450 1608 2612 
Q 1403 2775 1200 2775 
Q 1072 2775 981 2689 
Q 891 2603 891 2491 
Q 891 2406 953 2328 
Q 1053 2200 1512 1889 
Q 1972 1578 2117 1361 
Q 2263 1144 2263 875 
Q 2263 631 2141 397 
Q 2019 163 1797 37 
Q 1575 -88 1306 -88 
Q 1097 -88 747 44 
Q 653 78 619 78 
Q 516 78 447 -78 
L 344 -78 
L 294 972 
L 400 972 
Q 541 559 786 353 
Q 1031 147 1250 147 
Q 1400 147 1495 239 
Q 1591 331 1591 463 
Q 1591 613 1497 722 
Q 1403 831 1078 1053 
Q 600 1384 459 1559 
Q 253 1816 253 2125 
Q 253 2463 486 2736 
Q 719 3009 1159 3009 
Q 1397 3009 1619 2894 
Q 1703 2847 1756 2847 
Q 1813 2847 1847 2870 
Q 1881 2894 1956 3003 
L 2063 3003 
z
" transform="scale(0.015625)"/>
       <path id="TimesNewRomanPS-BoldMT-74" d="M 1375 3991 
L 1375 2922 
L 2069 2922 
L 2069 2613 
L 1375 2613 
L 1375 809 
Q 1375 556 1398 482 
Q 1422 409 1481 364 
Q 1541 319 1591 319 
Q 1794 319 1975 628 
L 2069 559 
Q 1816 -41 1247 -41 
Q 969 -41 776 114 
Q 584 269 531 459 
Q 500 566 500 1034 
L 500 2613 
L 119 2613 
L 119 2722 
Q 513 3000 789 3306 
Q 1066 3613 1272 3991 
L 1375 3991 
z
" transform="scale(0.015625)"/>
       <path id="TimesNewRomanPS-BoldMT-61" d="M 1828 431 
Q 1294 -41 869 -41 
Q 619 -41 453 123 
Q 288 288 288 534 
Q 288 869 575 1136 
Q 863 1403 1828 1847 
L 1828 2141 
Q 1828 2472 1792 2558 
Q 1756 2644 1656 2708 
Q 1556 2772 1431 2772 
Q 1228 2772 1097 2681 
Q 1016 2625 1016 2550 
Q 1016 2484 1103 2388 
Q 1222 2253 1222 2128 
Q 1222 1975 1108 1867 
Q 994 1759 809 1759 
Q 613 1759 480 1878 
Q 347 1997 347 2156 
Q 347 2381 525 2586 
Q 703 2791 1022 2900 
Q 1341 3009 1684 3009 
Q 2100 3009 2342 2832 
Q 2584 2656 2656 2450 
Q 2700 2319 2700 1847 
L 2700 713 
Q 2700 513 2715 461 
Q 2731 409 2762 384 
Q 2794 359 2834 359 
Q 2916 359 3000 475 
L 3094 400 
Q 2938 169 2770 64 
Q 2603 -41 2391 -41 
Q 2141 -41 2000 76 
Q 1859 194 1828 431 
z
M 1828 659 
L 1828 1638 
Q 1450 1416 1266 1163 
Q 1144 994 1144 822 
Q 1144 678 1247 569 
Q 1325 484 1466 484 
Q 1622 484 1828 659 
z
" transform="scale(0.015625)"/>
       <path id="TimesNewRomanPS-BoldMT-6e" d="M 1409 2922 
L 1409 2544 
Q 1634 2788 1840 2898 
Q 2047 3009 2284 3009 
Q 2569 3009 2756 2851 
Q 2944 2694 3006 2459 
Q 3056 2281 3056 1775 
L 3056 638 
Q 3056 300 3117 217 
Q 3178 134 3372 113 
L 3372 0 
L 1894 0 
L 1894 113 
Q 2059 134 2131 250 
Q 2181 328 2181 638 
L 2181 1938 
Q 2181 2297 2153 2390 
Q 2125 2484 2058 2536 
Q 1991 2588 1909 2588 
Q 1641 2588 1409 2203 
L 1409 638 
Q 1409 309 1470 221 
Q 1531 134 1697 113 
L 1697 0 
L 219 0 
L 219 113 
Q 403 131 481 231 
Q 534 300 534 638 
L 534 2288 
Q 534 2619 473 2700 
Q 413 2781 219 2806 
L 219 2922 
L 1409 2922 
z
" transform="scale(0.015625)"/>
       <path id="TimesNewRomanPS-BoldMT-63" d="M 2600 753 
L 2697 678 
Q 2491 291 2183 101 
Q 1875 -88 1528 -88 
Q 944 -88 594 353 
Q 244 794 244 1413 
Q 244 2009 563 2463 
Q 947 3009 1622 3009 
Q 2075 3009 2342 2781 
Q 2609 2553 2609 2272 
Q 2609 2094 2501 1987 
Q 2394 1881 2219 1881 
Q 2034 1881 1914 2003 
Q 1794 2125 1766 2438 
Q 1747 2634 1675 2713 
Q 1603 2791 1506 2791 
Q 1356 2791 1250 2631 
Q 1088 2391 1088 1894 
Q 1088 1481 1219 1104 
Q 1350 728 1578 544 
Q 1750 409 1984 409 
Q 2138 409 2275 481 
Q 2413 553 2600 753 
z
" transform="scale(0.015625)"/>
       <path id="TimesNewRomanPS-BoldMT-65" d="M 2691 1566 
L 1088 1566 
Q 1116 984 1397 647 
Q 1613 388 1916 388 
Q 2103 388 2256 492 
Q 2409 597 2584 869 
L 2691 800 
Q 2453 316 2165 114 
Q 1878 -88 1500 -88 
Q 850 -88 516 413 
Q 247 816 247 1413 
Q 247 2144 642 2576 
Q 1038 3009 1569 3009 
Q 2013 3009 2339 2645 
Q 2666 2281 2691 1566 
z
M 1922 1775 
Q 1922 2278 1867 2465 
Q 1813 2653 1697 2750 
Q 1631 2806 1522 2806 
Q 1359 2806 1256 2647 
Q 1072 2369 1072 1884 
L 1072 1775 
L 1922 1775 
z
" transform="scale(0.015625)"/>
       <path id="TimesNewRomanPS-BoldMT-20" transform="scale(0.015625)"/>
       <path id="TimesNewRomanPS-BoldMT-28" d="M 2056 4334 
L 2056 4191 
Q 1731 3978 1578 3775 
Q 1366 3494 1247 3053 
Q 1097 2506 1097 1525 
Q 1097 600 1233 87 
Q 1369 -425 1603 -741 
Q 1766 -959 2056 -1125 
L 2056 -1281 
Q 1303 -1028 779 -248 
Q 256 531 256 1544 
Q 256 2544 778 3314 
Q 1300 4084 2056 4334 
z
" transform="scale(0.015625)"/>
       <path id="TimesNewRomanPS-BoldMT-6d" d="M 1428 2922 
L 1428 2538 
Q 1669 2800 1873 2904 
Q 2078 3009 2322 3009 
Q 2603 3009 2793 2878 
Q 2984 2747 3088 2478 
Q 3338 2759 3567 2884 
Q 3797 3009 4047 3009 
Q 4350 3009 4529 2870 
Q 4709 2731 4779 2517 
Q 4850 2303 4850 1834 
L 4850 638 
Q 4850 300 4911 219 
Q 4972 138 5166 113 
L 5166 0 
L 3656 0 
L 3656 113 
Q 3834 128 3919 250 
Q 3975 334 3975 638 
L 3975 1894 
Q 3975 2284 3944 2390 
Q 3913 2497 3845 2548 
Q 3778 2600 3688 2600 
Q 3553 2600 3415 2501 
Q 3278 2403 3138 2206 
L 3138 638 
Q 3138 322 3191 241 
Q 3263 125 3466 113 
L 3466 0 
L 1953 0 
L 1953 113 
Q 2075 119 2145 173 
Q 2216 228 2239 304 
Q 2263 381 2263 638 
L 2263 1894 
Q 2263 2291 2231 2391 
Q 2200 2491 2126 2547 
Q 2053 2603 1969 2603 
Q 1844 2603 1741 2538 
Q 1594 2441 1428 2206 
L 1428 638 
Q 1428 328 1489 229 
Q 1550 131 1744 113 
L 1744 0 
L 238 0 
L 238 113 
Q 422 131 500 231 
Q 553 300 553 638 
L 553 2288 
Q 553 2619 492 2700 
Q 431 2781 238 2806 
L 238 2922 
L 1428 2922 
z
" transform="scale(0.015625)"/>
       <path id="TimesNewRomanPS-BoldMT-29" d="M 78 -1281 
L 78 -1138 
Q 403 -922 556 -719 
Q 766 -438 888 0 
Q 1038 550 1038 1531 
Q 1038 2456 902 2967 
Q 766 3478 531 3794 
Q 369 4013 78 4178 
L 78 4334 
Q 831 4081 1354 3301 
Q 1878 2522 1878 1509 
Q 1878 513 1354 -257 
Q 831 -1028 78 -1281 
z
" transform="scale(0.015625)"/>
      </defs>
      <use xlink:href="#TimesNewRomanPS-BoldMT-44"/>
      <use xlink:href="#TimesNewRomanPS-BoldMT-69" transform="translate(72.216797 0)"/>
      <use xlink:href="#TimesNewRomanPS-BoldMT-73" transform="translate(100 0)"/>
      <use xlink:href="#TimesNewRomanPS-BoldMT-74" transform="translate(138.916016 0)"/>
      <use xlink:href="#TimesNewRomanPS-BoldMT-61" transform="translate(172.216797 0)"/>
      <use xlink:href="#TimesNewRomanPS-BoldMT-6e" transform="translate(222.216797 0)"/>
      <use xlink:href="#TimesNewRomanPS-BoldMT-63" transform="translate(277.832031 0)"/>
      <use xlink:href="#TimesNewRomanPS-BoldMT-65" transform="translate(322.216797 0)"/>
      <use xlink:href="#TimesNewRomanPS-BoldMT-20" transform="translate(366.601562 0)"/>
      <use xlink:href="#TimesNewRomanPS-BoldMT-28" transform="translate(391.601562 0)"/>
      <use xlink:href="#TimesNewRomanPS-BoldMT-6d" transform="translate(424.902344 0)"/>
      <use xlink:href="#TimesNewRomanPS-BoldMT-29" transform="translate(508.203125 0)"/>
     </g>
    </g>
   </g>
   <g id="FillBetweenPolyCollection_1">
    <defs>
     <path id="m282b214e3b" d="M 153.89166 -69.355839 
L 130.310455 -69.355839 
L 129.48041 -69.593264 
L 128.62005 -69.830689 
L 127.731525 -70.068113 
L 126.817635 -70.305538 
L 125.881861 -70.542963 
L 124.928377 -70.780387 
L 123.962026 -71.017812 
L 122.988265 -71.255237 
L 122.013083 -71.492661 
L 121.042871 -71.730086 
L 120.08427 -71.967511 
L 119.143984 -72.204936 
L 118.228563 -72.44236 
L 117.34418 -72.679785 
L 116.496387 -72.91721 
L 115.68988 -73.154634 
L 114.928273 -73.392059 
L 114.213893 -73.629484 
L 113.547618 -73.866908 
L 112.92875 -74.104333 
L 112.35495 -74.341758 
L 111.822231 -74.579183 
L 111.325019 -74.816607 
L 110.856283 -75.054032 
L 110.407731 -75.291457 
L 109.97007 -75.528881 
L 109.533327 -75.766306 
L 109.08721 -76.003731 
L 108.621509 -76.241155 
L 108.126515 -76.47858 
L 107.593439 -76.716005 
L 107.014828 -76.95343 
L 106.384937 -77.190854 
L 105.700067 -77.428279 
L 104.958836 -77.665704 
L 104.162376 -77.903128 
L 103.314452 -78.140553 
L 102.421478 -78.377978 
L 101.492457 -78.615402 
L 100.53881 -78.852827 
L 99.57413 -79.090252 
L 98.61384 -79.327677 
L 97.674797 -79.565101 
L 96.774826 -79.802526 
L 95.932221 -80.039951 
L 95.165217 -80.277375 
L 94.491466 -80.5148 
L 93.92752 -80.752225 
L 93.488349 -80.989649 
L 93.186904 -81.227074 
L 93.03375 -81.464499 
L 93.036763 -81.701924 
L 93.200915 -81.939348 
L 93.528149 -82.176773 
L 94.017337 -82.414198 
L 94.66433 -82.651622 
L 95.462091 -82.889047 
L 96.400906 -83.126472 
L 97.468659 -83.363896 
L 98.65116 -83.601321 
L 99.932528 -83.838746 
L 101.295583 -84.076171 
L 102.722277 -84.313595 
L 104.194112 -84.55102 
L 105.692555 -84.788445 
L 107.199437 -85.025869 
L 108.697318 -85.263294 
L 110.169824 -85.500719 
L 111.60193 -85.738143 
L 112.980209 -85.975568 
L 114.293031 -86.212993 
L 115.530703 -86.450418 
L 116.68557 -86.687842 
L 117.752067 -86.925267 
L 118.726718 -87.162692 
L 119.6081 -87.400116 
L 120.396761 -87.637541 
L 121.095106 -87.874966 
L 121.70725 -88.11239 
L 122.23884 -88.349815 
L 122.696857 -88.58724 
L 123.089398 -88.824665 
L 123.425442 -89.062089 
L 123.714609 -89.299514 
L 123.966912 -89.536939 
L 124.192513 -89.774363 
L 124.401482 -90.011788 
L 124.603569 -90.249213 
L 124.807991 -90.486637 
L 125.023237 -90.724062 
L 125.256906 -90.961487 
L 125.51556 -91.198912 
L 125.80462 -91.436336 
L 126.128292 -91.673761 
L 126.489518 -91.911186 
L 126.889978 -92.14861 
L 127.330109 -92.386035 
L 127.809161 -92.62346 
L 128.325289 -92.860884 
L 155.876827 -92.860884 
L 155.876827 -92.860884 
L 156.392954 -92.62346 
L 156.872007 -92.386035 
L 157.312137 -92.14861 
L 157.712597 -91.911186 
L 158.073824 -91.673761 
L 158.397495 -91.436336 
L 158.686556 -91.198912 
L 158.945209 -90.961487 
L 159.178878 -90.724062 
L 159.394125 -90.486637 
L 159.598546 -90.249213 
L 159.800634 -90.011788 
L 160.009603 -89.774363 
L 160.235204 -89.536939 
L 160.487506 -89.299514 
L 160.776673 -89.062089 
L 161.112717 -88.824665 
L 161.505258 -88.58724 
L 161.963275 -88.349815 
L 162.494865 -88.11239 
L 163.107009 -87.874966 
L 163.805354 -87.637541 
L 164.594015 -87.400116 
L 165.475397 -87.162692 
L 166.450048 -86.925267 
L 167.516545 -86.687842 
L 168.671413 -86.450418 
L 169.909084 -86.212993 
L 171.221906 -85.975568 
L 172.600186 -85.738143 
L 174.032291 -85.500719 
L 175.504797 -85.263294 
L 177.002679 -85.025869 
L 178.50956 -84.788445 
L 180.008003 -84.55102 
L 181.479838 -84.313595 
L 182.906532 -84.076171 
L 184.269588 -83.838746 
L 185.550955 -83.601321 
L 186.733457 -83.363896 
L 187.801209 -83.126472 
L 188.740024 -82.889047 
L 189.537785 -82.651622 
L 190.184778 -82.414198 
L 190.673966 -82.176773 
L 191.0012 -81.939348 
L 191.165353 -81.701924 
L 191.168365 -81.464499 
L 191.015211 -81.227074 
L 190.713767 -80.989649 
L 190.274595 -80.752225 
L 189.710649 -80.5148 
L 189.036898 -80.277375 
L 188.269895 -80.039951 
L 187.427289 -79.802526 
L 186.527318 -79.565101 
L 185.588275 -79.327677 
L 184.627986 -79.090252 
L 183.663305 -78.852827 
L 182.709659 -78.615402 
L 181.780637 -78.377978 
L 180.887664 -78.140553 
L 180.039739 -77.903128 
L 179.243279 -77.665704 
L 178.502048 -77.428279 
L 177.817178 -77.190854 
L 177.187287 -76.95343 
L 176.608676 -76.716005 
L 176.075601 -76.47858 
L 175.580606 -76.241155 
L 175.114906 -76.003731 
L 174.668789 -75.766306 
L 174.232045 -75.528881 
L 173.794385 -75.291457 
L 173.345832 -75.054032 
L 172.877096 -74.816607 
L 172.379884 -74.579183 
L 171.847165 -74.341758 
L 171.273365 -74.104333 
L 170.654497 -73.866908 
L 169.988222 -73.629484 
L 169.273843 -73.392059 
L 168.512235 -73.154634 
L 167.705729 -72.91721 
L 166.857936 -72.679785 
L 165.973553 -72.44236 
L 165.058132 -72.204936 
L 164.117845 -71.967511 
L 163.159244 -71.730086 
L 162.189032 -71.492661 
L 161.21385 -71.255237 
L 160.24009 -71.017812 
L 159.273738 -70.780387 
L 158.320254 -70.542963 
L 157.384481 -70.305538 
L 156.47059 -70.068113 
L 155.582065 -69.830689 
L 154.721705 -69.593264 
L 153.89166 -69.355839 
z
" style="stroke: #000000; stroke-opacity: 0.7; stroke-width: 1.5"/>
    </defs>
    <g clip-path="url(#p2fe572eb2a)">
     <use xlink:href="#m282b214e3b" x="0" y="417.8733" style="fill: #ffffff; fill-opacity: 0.7; stroke: #000000; stroke-opacity: 0.7; stroke-width: 1.5"/>
    </g>
   </g>
   <g id="FillBetweenPolyCollection_2">
    <defs>
     <path id="mce87dd3b7e" d="M 354.475053 -84.921364 
L 256.842447 -84.921364 
L 256.670931 -87.573353 
L 256.591442 -90.225341 
L 256.604321 -92.87733 
L 256.709367 -95.529318 
L 256.905841 -98.181307 
L 257.192471 -100.833295 
L 257.567458 -103.485284 
L 258.028495 -106.137272 
L 258.572786 -108.789261 
L 259.197066 -111.44125 
L 259.897633 -114.093238 
L 260.670375 -116.745227 
L 261.510808 -119.397215 
L 262.414111 -122.049204 
L 263.375165 -124.701192 
L 264.388595 -127.353181 
L 265.448814 -130.005169 
L 266.550063 -132.657158 
L 267.686457 -135.309146 
L 268.852029 -137.961135 
L 270.04077 -140.613123 
L 271.246673 -143.265112 
L 272.463771 -145.9171 
L 273.686178 -148.569089 
L 274.908125 -151.221077 
L 276.12399 -153.873066 
L 277.328331 -156.525054 
L 278.515918 -159.177043 
L 279.681749 -161.829031 
L 280.821081 -164.48102 
L 281.92944 -167.133008 
L 283.002644 -169.784997 
L 284.03681 -172.436985 
L 285.028365 -175.088974 
L 285.974052 -177.740962 
L 286.870933 -180.392951 
L 287.716391 -183.044939 
L 288.508127 -185.696928 
L 289.244159 -188.348916 
L 289.922813 -191.000905 
L 290.542718 -193.652893 
L 291.102799 -196.304882 
L 291.602266 -198.95687 
L 292.040603 -201.608859 
L 292.417559 -204.260848 
L 292.733136 -206.912836 
L 292.987577 -209.564825 
L 293.181357 -212.216813 
L 293.315169 -214.868802 
L 293.389914 -217.52079 
L 293.406692 -220.172779 
L 293.36679 -222.824767 
L 293.271676 -225.476756 
L 293.122985 -228.128744 
L 292.922515 -230.780733 
L 292.67222 -233.432721 
L 292.374198 -236.08471 
L 292.03069 -238.736698 
L 291.644068 -241.388687 
L 291.216835 -244.040675 
L 290.751615 -246.692664 
L 290.251147 -249.344652 
L 289.718282 -251.996641 
L 289.155974 -254.648629 
L 288.567274 -257.300618 
L 287.955326 -259.952606 
L 287.323354 -262.604595 
L 286.674658 -265.256583 
L 286.012605 -267.908572 
L 285.340618 -270.56056 
L 284.662163 -273.212549 
L 283.980743 -275.864537 
L 283.299881 -278.516526 
L 282.623108 -281.168514 
L 281.95395 -283.820503 
L 281.29591 -286.472491 
L 280.652456 -289.12448 
L 280.027002 -291.776468 
L 279.42289 -294.428457 
L 278.843377 -297.080446 
L 278.291611 -299.732434 
L 277.770619 -302.384423 
L 277.283287 -305.036411 
L 276.832343 -307.6884 
L 276.420337 -310.340388 
L 276.049633 -312.992377 
L 275.722384 -315.644365 
L 275.440523 -318.296354 
L 275.205751 -320.948342 
L 275.019522 -323.600331 
L 274.883036 -326.252319 
L 274.797228 -328.904308 
L 274.762764 -331.556296 
L 274.780036 -334.208285 
L 274.84916 -336.860273 
L 274.969974 -339.512262 
L 275.142042 -342.16425 
L 275.364658 -344.816239 
L 275.636852 -347.468227 
L 335.680648 -347.468227 
L 335.680648 -347.468227 
L 335.952842 -344.816239 
L 336.175458 -342.16425 
L 336.347526 -339.512262 
L 336.46834 -336.860273 
L 336.537464 -334.208285 
L 336.554736 -331.556296 
L 336.520272 -328.904308 
L 336.434464 -326.252319 
L 336.297978 -323.600331 
L 336.111749 -320.948342 
L 335.876977 -318.296354 
L 335.595116 -315.644365 
L 335.267867 -312.992377 
L 334.897163 -310.340388 
L 334.485157 -307.6884 
L 334.034213 -305.036411 
L 333.546881 -302.384423 
L 333.025889 -299.732434 
L 332.474123 -297.080446 
L 331.89461 -294.428457 
L 331.290498 -291.776468 
L 330.665044 -289.12448 
L 330.02159 -286.472491 
L 329.36355 -283.820503 
L 328.694392 -281.168514 
L 328.017619 -278.516526 
L 327.336757 -275.864537 
L 326.655337 -273.212549 
L 325.976882 -270.56056 
L 325.304895 -267.908572 
L 324.642842 -265.256583 
L 323.994146 -262.604595 
L 323.362174 -259.952606 
L 322.750226 -257.300618 
L 322.161526 -254.648629 
L 321.599218 -251.996641 
L 321.066353 -249.344652 
L 320.565885 -246.692664 
L 320.100665 -244.040675 
L 319.673432 -241.388687 
L 319.28681 -238.736698 
L 318.943302 -236.08471 
L 318.64528 -233.432721 
L 318.394985 -230.780733 
L 318.194515 -228.128744 
L 318.045824 -225.476756 
L 317.95071 -222.824767 
L 317.910808 -220.172779 
L 317.927586 -217.52079 
L 318.002331 -214.868802 
L 318.136143 -212.216813 
L 318.329923 -209.564825 
L 318.584364 -206.912836 
L 318.899941 -204.260848 
L 319.276897 -201.608859 
L 319.715234 -198.95687 
L 320.214701 -196.304882 
L 320.774782 -193.652893 
L 321.394687 -191.000905 
L 322.073341 -188.348916 
L 322.809373 -185.696928 
L 323.601109 -183.044939 
L 324.446567 -180.392951 
L 325.343448 -177.740962 
L 326.289135 -175.088974 
L 327.28069 -172.436985 
L 328.314856 -169.784997 
L 329.38806 -167.133008 
L 330.496419 -164.48102 
L 331.635751 -161.829031 
L 332.801582 -159.177043 
L 333.989169 -156.525054 
L 335.19351 -153.873066 
L 336.409375 -151.221077 
L 337.631322 -148.569089 
L 338.853729 -145.9171 
L 340.070827 -143.265112 
L 341.27673 -140.613123 
L 342.465471 -137.961135 
L 343.631043 -135.309146 
L 344.767437 -132.657158 
L 345.868686 -130.005169 
L 346.928905 -127.353181 
L 347.942335 -124.701192 
L 348.903389 -122.049204 
L 349.806692 -119.397215 
L 350.647125 -116.745227 
L 351.419867 -114.093238 
L 352.120434 -111.44125 
L 352.744714 -108.789261 
L 353.289005 -106.137272 
L 353.750042 -103.485284 
L 354.125029 -100.833295 
L 354.411659 -98.181307 
L 354.608133 -95.529318 
L 354.713179 -92.87733 
L 354.726058 -90.225341 
L 354.646569 -87.573353 
L 354.475053 -84.921364 
z
" style="stroke: #000000; stroke-opacity: 0.7; stroke-width: 1.5"/>
    </defs>
    <g clip-path="url(#p2fe572eb2a)">
     <use xlink:href="#mce87dd3b7e" x="0" y="417.8733" style="fill: #ffffff; fill-opacity: 0.7; stroke: #000000; stroke-opacity: 0.7; stroke-width: 1.5"/>
    </g>
   </g>
   <g id="FillBetweenPolyCollection_3">
    <defs>
     <path id="m14fd6fb6b5" d="M 480.728125 -339.316855 
L 457.70476 -339.316855 
L 457.263625 -339.399192 
L 456.830838 -339.481529 
L 456.408501 -339.563866 
L 455.998726 -339.646203 
L 455.603614 -339.72854 
L 455.225238 -339.810877 
L 454.865622 -339.893214 
L 454.526722 -339.975551 
L 454.210402 -340.057889 
L 453.918418 -340.140226 
L 453.652396 -340.222563 
L 453.413813 -340.3049 
L 453.203983 -340.387237 
L 453.024035 -340.469574 
L 452.874905 -340.551911 
L 452.757318 -340.634248 
L 452.671784 -340.716585 
L 452.618587 -340.798922 
L 452.597779 -340.88126 
L 452.609181 -340.963597 
L 452.652384 -341.045934 
L 452.726748 -341.128271 
L 452.831412 -341.210608 
L 452.965301 -341.292945 
L 453.127136 -341.375282 
L 453.315448 -341.457619 
L 453.52859 -341.539956 
L 453.764756 -341.622293 
L 454.021995 -341.70463 
L 454.298229 -341.786968 
L 454.59127 -341.869305 
L 454.898838 -341.951642 
L 455.218577 -342.033979 
L 455.548069 -342.116316 
L 455.884852 -342.198653 
L 456.226427 -342.28099 
L 456.570273 -342.363327 
L 456.913851 -342.445664 
L 457.254616 -342.528001 
L 457.590015 -342.610339 
L 457.917493 -342.692676 
L 458.234491 -342.775013 
L 458.538442 -342.85735 
L 458.826773 -342.939687 
L 459.096895 -343.022024 
L 459.346199 -343.104361 
L 459.572052 -343.186698 
L 459.771789 -343.269035 
L 459.942712 -343.351372 
L 460.082081 -343.43371 
L 460.187119 -343.516047 
L 460.25501 -343.598384 
L 460.282903 -343.680721 
L 460.267924 -343.763058 
L 460.207181 -343.845395 
L 460.097789 -343.927732 
L 459.936884 -344.010069 
L 459.721652 -344.092406 
L 459.449359 -344.174743 
L 459.117387 -344.25708 
L 458.723273 -344.339418 
L 458.264754 -344.421755 
L 457.739811 -344.504092 
L 457.146725 -344.586429 
L 456.484126 -344.668766 
L 455.751047 -344.751103 
L 454.946982 -344.83344 
L 454.071934 -344.915777 
L 453.126468 -344.998114 
L 452.111764 -345.080451 
L 451.029653 -345.162789 
L 449.882659 -345.245126 
L 448.674028 -345.327463 
L 447.407753 -345.4098 
L 446.088582 -345.492137 
L 444.722023 -345.574474 
L 443.314334 -345.656811 
L 441.872506 -345.739148 
L 440.404223 -345.821485 
L 438.917821 -345.903822 
L 437.422229 -345.98616 
L 435.926897 -346.068497 
L 434.441716 -346.150834 
L 432.976924 -346.233171 
L 431.543003 -346.315508 
L 430.150568 -346.397845 
L 428.810251 -346.480182 
L 427.532577 -346.562519 
L 426.327839 -346.644856 
L 425.205973 -346.727193 
L 424.17643 -346.80953 
L 423.248057 -346.891868 
L 422.42898 -346.974205 
L 421.726498 -347.056542 
L 421.146981 -347.138879 
L 420.695789 -347.221216 
L 420.377195 -347.303553 
L 420.194329 -347.38589 
L 420.149135 -347.468227 
L 518.28375 -347.468227 
L 518.28375 -347.468227 
L 518.238556 -347.38589 
L 518.05569 -347.303553 
L 517.737096 -347.221216 
L 517.285904 -347.138879 
L 516.706387 -347.056542 
L 516.003905 -346.974205 
L 515.184828 -346.891868 
L 514.256455 -346.80953 
L 513.226912 -346.727193 
L 512.105046 -346.644856 
L 510.900308 -346.562519 
L 509.622634 -346.480182 
L 508.282317 -346.397845 
L 506.889882 -346.315508 
L 505.45596 -346.233171 
L 503.991168 -346.150834 
L 502.505988 -346.068497 
L 501.010656 -345.98616 
L 499.515064 -345.903822 
L 498.028662 -345.821485 
L 496.560379 -345.739148 
L 495.11855 -345.656811 
L 493.710862 -345.574474 
L 492.344303 -345.492137 
L 491.025132 -345.4098 
L 489.758856 -345.327463 
L 488.550226 -345.245126 
L 487.403232 -345.162789 
L 486.321121 -345.080451 
L 485.306416 -344.998114 
L 484.360951 -344.915777 
L 483.485902 -344.83344 
L 482.681837 -344.751103 
L 481.948759 -344.668766 
L 481.28616 -344.586429 
L 480.693074 -344.504092 
L 480.168131 -344.421755 
L 479.709611 -344.339418 
L 479.315498 -344.25708 
L 478.983526 -344.174743 
L 478.711233 -344.092406 
L 478.496001 -344.010069 
L 478.335096 -343.927732 
L 478.225703 -343.845395 
L 478.164961 -343.763058 
L 478.149981 -343.680721 
L 478.177875 -343.598384 
L 478.245766 -343.516047 
L 478.350804 -343.43371 
L 478.490173 -343.351372 
L 478.661095 -343.269035 
L 478.860833 -343.186698 
L 479.086686 -343.104361 
L 479.33599 -343.022024 
L 479.606112 -342.939687 
L 479.894443 -342.85735 
L 480.198394 -342.775013 
L 480.515391 -342.692676 
L 480.842869 -342.610339 
L 481.178268 -342.528001 
L 481.519033 -342.445664 
L 481.862612 -342.363327 
L 482.206457 -342.28099 
L 482.548032 -342.198653 
L 482.884815 -342.116316 
L 483.214308 -342.033979 
L 483.534047 -341.951642 
L 483.841615 -341.869305 
L 484.134656 -341.786968 
L 484.41089 -341.70463 
L 484.668128 -341.622293 
L 484.904294 -341.539956 
L 485.117437 -341.457619 
L 485.305748 -341.375282 
L 485.467583 -341.292945 
L 485.601472 -341.210608 
L 485.706137 -341.128271 
L 485.780501 -341.045934 
L 485.823703 -340.963597 
L 485.835106 -340.88126 
L 485.814298 -340.798922 
L 485.7611 -340.716585 
L 485.675566 -340.634248 
L 485.55798 -340.551911 
L 485.408849 -340.469574 
L 485.228901 -340.387237 
L 485.019071 -340.3049 
L 484.780489 -340.222563 
L 484.514467 -340.140226 
L 484.222483 -340.057889 
L 483.906163 -339.975551 
L 483.567262 -339.893214 
L 483.207647 -339.810877 
L 482.829271 -339.72854 
L 482.434159 -339.646203 
L 482.024384 -339.563866 
L 481.602047 -339.481529 
L 481.16926 -339.399192 
L 480.728125 -339.316855 
z
" style="stroke: #000000; stroke-opacity: 0.7; stroke-width: 1.5"/>
    </defs>
    <g clip-path="url(#p2fe572eb2a)">
     <use xlink:href="#m14fd6fb6b5" x="0" y="417.8733" style="fill: #ffffff; fill-opacity: 0.7; stroke: #000000; stroke-opacity: 0.7; stroke-width: 1.5"/>
    </g>
   </g>
   <g id="line2d_9">
    <path d="M 71.77125 70.405073 
L 539.54625 70.405073 
" clip-path="url(#p2fe572eb2a)" style="fill: none; stroke-dasharray: 7.4,3.2; stroke-dashoffset: 0; stroke: #008000; stroke-opacity: 0.8; stroke-width: 2"/>
   </g>
   <g id="patch_3">
    <path d="M 71.77125 354.1978 
L 71.77125 42.0258 
" style="fill: none; stroke: #262626; stroke-width: 1.25; stroke-linejoin: miter; stroke-linecap: square"/>
   </g>
   <g id="patch_4">
    <path d="M 539.54625 354.1978 
L 539.54625 42.0258 
" style="fill: none; stroke: #262626; stroke-width: 1.25; stroke-linejoin: miter; stroke-linecap: square"/>
   </g>
   <g id="patch_5">
    <path d="M 71.77125 354.1978 
L 539.54625 354.1978 
" style="fill: none; stroke: #262626; stroke-width: 1.25; stroke-linejoin: miter; stroke-linecap: square"/>
   </g>
   <g id="patch_6">
    <path d="M 71.77125 42.0258 
L 539.54625 42.0258 
" style="fill: none; stroke: #262626; stroke-width: 1.25; stroke-linejoin: miter; stroke-linecap: square"/>
   </g>
   <g id="text_10">
    <!-- n=20 -->
    <g style="fill: #262626" transform="translate(117.334183 316.756946) scale(0.24 -0.24)">
     <defs>
      <path id="TimesNewRomanPSMT-3d" d="M 116 2759 
L 3488 2759 
L 3488 2503 
L 116 2503 
L 116 2759 
z
M 116 1741 
L 3488 1741 
L 3488 1484 
L 116 1484 
L 116 1741 
z
" transform="scale(0.015625)"/>
     </defs>
     <use xlink:href="#TimesNewRomanPSMT-6e"/>
     <use xlink:href="#TimesNewRomanPSMT-3d" transform="translate(50 0)"/>
     <use xlink:href="#TimesNewRomanPSMT-32" transform="translate(106.396484 0)"/>
     <use xlink:href="#TimesNewRomanPSMT-30" transform="translate(156.396484 0)"/>
    </g>
   </g>
   <g id="text_11">
    <!-- n=20 -->
    <g style="fill: #262626" transform="translate(280.891875 62.149603) scale(0.24 -0.24)">
     <use xlink:href="#TimesNewRomanPSMT-6e"/>
     <use xlink:href="#TimesNewRomanPSMT-3d" transform="translate(50 0)"/>
     <use xlink:href="#TimesNewRomanPSMT-32" transform="translate(106.396484 0)"/>
     <use xlink:href="#TimesNewRomanPSMT-30" transform="translate(156.396484 0)"/>
    </g>
   </g>
   <g id="text_12">
    <!-- n=20 -->
    <g style="fill: #262626" transform="translate(444.449567 62.149603) scale(0.24 -0.24)">
     <use xlink:href="#TimesNewRomanPSMT-6e"/>
     <use xlink:href="#TimesNewRomanPSMT-3d" transform="translate(50 0)"/>
     <use xlink:href="#TimesNewRomanPSMT-32" transform="translate(106.396484 0)"/>
     <use xlink:href="#TimesNewRomanPSMT-30" transform="translate(156.396484 0)"/>
    </g>
   </g>
   <g id="patch_7">
    <path d="M 133.923173 342.564102 
L 150.278942 342.564102 
L 150.278942 334.171434 
L 133.923173 334.171434 
z
" clip-path="url(#p2fe572eb2a)" style="fill: #ffffff; opacity: 0.9; stroke: #000000; stroke-width: 1.5; stroke-linejoin: miter"/>
   </g>
   <g id="patch_8">
    <path d="M 297.480865 327.533853 
L 313.836635 327.533853 
L 313.836635 94.206485 
L 297.480865 94.206485 
z
" clip-path="url(#p2fe572eb2a)" style="fill: #ffffff; opacity: 0.9; stroke: #000000; stroke-width: 1.5; stroke-linejoin: miter"/>
   </g>
   <g id="patch_9">
    <path d="M 461.038558 75.000443 
L 477.394327 75.000443 
L 477.394327 70.405073 
L 461.038558 70.405073 
z
" clip-path="url(#p2fe572eb2a)" style="fill: #ffffff; opacity: 0.9; stroke: #000000; stroke-width: 1.5; stroke-linejoin: miter"/>
   </g>
   <g id="LineCollection_1">
    <path d="M 142.101058 342.286527 
L 142.101058 330.736825 
" clip-path="url(#p2fe572eb2a)" style="fill: none; stroke: #000000; stroke-opacity: 0.8; stroke-width: 1.5"/>
   </g>
   <g id="PathCollection_1">
    <defs>
     <path id="m7350dc3c3e" d="M 0 2.5 
C 0.663008 2.5 1.29895 2.236584 1.767767 1.767767 
C 2.236584 1.29895 2.5 0.663008 2.5 0 
C 2.5 -0.663008 2.236584 -1.29895 1.767767 -1.767767 
C 1.29895 -2.236584 0.663008 -2.5 0 -2.5 
C -0.663008 -2.5 -1.29895 -2.236584 -1.767767 -1.767767 
C -2.236584 -1.29895 -2.5 -0.663008 -2.5 0 
C -2.5 0.663008 -2.236584 1.29895 -1.767767 1.767767 
C -1.29895 2.236584 -0.663008 2.5 0 2.5 
z
" style="stroke: #000000"/>
    </defs>
    <g clip-path="url(#p2fe572eb2a)">
     <use xlink:href="#m7350dc3c3e" x="142.101058" y="336.511676" style="stroke: #000000"/>
    </g>
   </g>
   <g id="LineCollection_2">
    <path d="M 305.65875 418.8733 
L 305.65875 161.64867 
" clip-path="url(#p2fe572eb2a)" style="fill: none; stroke: #000000; stroke-opacity: 0.8; stroke-width: 1.5"/>
   </g>
   <g id="PathCollection_2">
    <g clip-path="url(#p2fe572eb2a)">
     <use xlink:href="#m7350dc3c3e" x="305.65875" y="322.197228" style="stroke: #000000"/>
    </g>
   </g>
   <g id="LineCollection_3">
    <path d="M 469.216442 73.567068 
L 469.216442 70.405073 
" clip-path="url(#p2fe572eb2a)" style="fill: none; stroke: #000000; stroke-opacity: 0.8; stroke-width: 1.5"/>
   </g>
   <g id="PathCollection_3">
    <g clip-path="url(#p2fe572eb2a)">
     <use xlink:href="#m7350dc3c3e" x="469.216442" y="70.405073" style="stroke: #000000"/>
    </g>
   </g>
   <g id="legend_1">
    <g id="line2d_10">
     <path d="M 75.718125 25.2 
L 99.718125 25.2 
L 123.718125 25.2 
" style="fill: none; stroke-dasharray: 7.4,3.2; stroke-dashoffset: 0; stroke: #008000; stroke-width: 2"/>
    </g>
    <g id="text_13">
     <!-- Goal Distance -->
     <g style="fill: #262626" transform="translate(142.918125 33.6) scale(0.24 -0.24)">
      <defs>
       <path id="TimesNewRomanPSMT-47" d="M 3928 4334 
L 4038 2997 
L 3928 2997 
Q 3763 3497 3500 3750 
Q 3122 4116 2528 4116 
Q 1719 4116 1297 3475 
Q 944 2934 944 2188 
Q 944 1581 1178 1081 
Q 1413 581 1792 348 
Q 2172 116 2572 116 
Q 2806 116 3025 175 
Q 3244 234 3447 350 
L 3447 1575 
Q 3447 1894 3398 1992 
Q 3350 2091 3248 2142 
Q 3147 2194 2891 2194 
L 2891 2313 
L 4531 2313 
L 4531 2194 
L 4453 2194 
Q 4209 2194 4119 2031 
Q 4056 1916 4056 1575 
L 4056 278 
Q 3697 84 3347 -6 
Q 2997 -97 2569 -97 
Q 1341 -97 703 691 
Q 225 1281 225 2053 
Q 225 2613 494 3125 
Q 813 3734 1369 4063 
Q 1834 4334 2469 4334 
Q 2700 4334 2889 4296 
Q 3078 4259 3425 4131 
Q 3600 4066 3659 4066 
Q 3719 4066 3761 4120 
Q 3803 4175 3813 4334 
L 3928 4334 
z
" transform="scale(0.015625)"/>
       <path id="TimesNewRomanPSMT-20" transform="scale(0.015625)"/>
      </defs>
      <use xlink:href="#TimesNewRomanPSMT-47"/>
      <use xlink:href="#TimesNewRomanPSMT-6f" transform="translate(72.216797 0)"/>
      <use xlink:href="#TimesNewRomanPSMT-61" transform="translate(122.216797 0)"/>
      <use xlink:href="#TimesNewRomanPSMT-6c" transform="translate(166.601562 0)"/>
      <use xlink:href="#TimesNewRomanPSMT-20" transform="translate(194.384766 0)"/>
      <use xlink:href="#TimesNewRomanPSMT-44" transform="translate(219.384766 0)"/>
      <use xlink:href="#TimesNewRomanPSMT-69" transform="translate(291.601562 0)"/>
      <use xlink:href="#TimesNewRomanPSMT-73" transform="translate(319.384766 0)"/>
      <use xlink:href="#TimesNewRomanPSMT-74" transform="translate(358.300781 0)"/>
      <use xlink:href="#TimesNewRomanPSMT-61" transform="translate(386.083984 0)"/>
      <use xlink:href="#TimesNewRomanPSMT-6e" transform="translate(430.46875 0)"/>
      <use xlink:href="#TimesNewRomanPSMT-63" transform="translate(480.46875 0)"/>
      <use xlink:href="#TimesNewRomanPSMT-65" transform="translate(524.853516 0)"/>
     </g>
    </g>
    <g id="line2d_11">
     <path d="M 327.541875 25.2 
L 351.541875 25.2 
L 375.541875 25.2 
" style="fill: none; stroke: #000000; stroke-width: 1.5; stroke-linecap: round"/>
    </g>
    <g id="text_14">
     <!-- 95% CI + IQR -->
     <g style="fill: #262626" transform="translate(394.741875 33.6) scale(0.24 -0.24)">
      <defs>
       <path id="TimesNewRomanPSMT-39" d="M 338 -88 
L 338 28 
Q 744 34 1094 217 
Q 1444 400 1770 856 
Q 2097 1313 2225 1859 
Q 1734 1544 1338 1544 
Q 891 1544 572 1889 
Q 253 2234 253 2806 
Q 253 3363 572 3797 
Q 956 4325 1575 4325 
Q 2097 4325 2469 3894 
Q 2925 3359 2925 2575 
Q 2925 1869 2578 1258 
Q 2231 647 1613 244 
Q 1109 -88 516 -88 
L 338 -88 
z
M 2275 2091 
Q 2331 2497 2331 2741 
Q 2331 3044 2228 3395 
Q 2125 3747 1936 3934 
Q 1747 4122 1506 4122 
Q 1228 4122 1018 3872 
Q 809 3622 809 3128 
Q 809 2469 1088 2097 
Q 1291 1828 1588 1828 
Q 1731 1828 1928 1897 
Q 2125 1966 2275 2091 
z
" transform="scale(0.015625)"/>
       <path id="TimesNewRomanPSMT-25" d="M 4350 4334 
L 1263 -175 
L 984 -175 
L 4072 4334 
L 4350 4334 
z
M 1138 4334 
Q 1559 4334 1792 3984 
Q 2025 3634 2025 3181 
Q 2025 2638 1762 2341 
Q 1500 2044 1131 2044 
Q 884 2044 678 2180 
Q 472 2316 348 2584 
Q 225 2853 225 3181 
Q 225 3509 350 3786 
Q 475 4063 692 4198 
Q 909 4334 1138 4334 
z
M 1128 4159 
Q 969 4159 845 3971 
Q 722 3784 722 3184 
Q 722 2750 791 2522 
Q 844 2350 956 2256 
Q 1022 2200 1119 2200 
Q 1269 2200 1375 2363 
Q 1531 2603 1531 3166 
Q 1531 3759 1378 4000 
Q 1278 4159 1128 4159 
z
M 4206 2103 
Q 4428 2103 4648 1962 
Q 4869 1822 4989 1553 
Q 5109 1284 5109 963 
Q 5109 409 4843 117 
Q 4578 -175 4216 -175 
Q 3988 -175 3773 -34 
Q 3559 106 3436 367 
Q 3313 628 3313 963 
Q 3313 1291 3436 1562 
Q 3559 1834 3773 1968 
Q 3988 2103 4206 2103 
z
M 4209 1938 
Q 4059 1938 3950 1769 
Q 3809 1550 3809 941 
Q 3809 381 3953 159 
Q 4059 0 4209 0 
Q 4353 0 4466 172 
Q 4616 400 4616 956 
Q 4616 1544 4466 1778 
Q 4363 1938 4209 1938 
z
" transform="scale(0.015625)"/>
       <path id="TimesNewRomanPSMT-49" d="M 1975 116 
L 1975 0 
L 159 0 
L 159 116 
L 309 116 
Q 572 116 691 269 
Q 766 369 766 750 
L 766 3488 
Q 766 3809 725 3913 
Q 694 3991 597 4047 
Q 459 4122 309 4122 
L 159 4122 
L 159 4238 
L 1975 4238 
L 1975 4122 
L 1822 4122 
Q 1563 4122 1444 3969 
Q 1366 3869 1366 3488 
L 1366 750 
Q 1366 428 1406 325 
Q 1438 247 1538 191 
Q 1672 116 1822 116 
L 1975 116 
z
" transform="scale(0.015625)"/>
       <path id="TimesNewRomanPSMT-2b" d="M 1672 441 
L 1672 2000 
L 116 2000 
L 116 2256 
L 1672 2256 
L 1672 3809 
L 1922 3809 
L 1922 2256 
L 3484 2256 
L 3484 2000 
L 1922 2000 
L 1922 441 
L 1672 441 
z
" transform="scale(0.015625)"/>
       <path id="TimesNewRomanPSMT-51" d="M 2819 -47 
Q 3138 -597 3508 -856 
Q 3878 -1116 4350 -1153 
L 4350 -1253 
Q 3919 -1238 3428 -1080 
Q 2938 -922 2498 -642 
Q 2059 -363 1741 -47 
Q 1291 134 1028 338 
Q 647 641 436 1083 
Q 225 1525 225 2128 
Q 225 3078 840 3706 
Q 1456 4334 2331 4334 
Q 3163 4334 3770 3704 
Q 4378 3075 4378 2116 
Q 4378 1338 3945 750 
Q 3513 163 2819 -47 
z
M 2294 4094 
Q 1725 4094 1378 3688 
Q 941 3178 941 2128 
Q 941 1100 1384 544 
Q 1728 116 2294 116 
Q 2881 116 3241 544 
Q 3663 1050 3663 2038 
Q 3663 2797 3431 3316 
Q 3253 3716 2958 3905 
Q 2663 4094 2294 4094 
z
" transform="scale(0.015625)"/>
       <path id="TimesNewRomanPSMT-52" d="M 4325 0 
L 3194 0 
L 1759 1981 
Q 1600 1975 1500 1975 
Q 1459 1975 1412 1976 
Q 1366 1978 1316 1981 
L 1316 750 
Q 1316 350 1403 253 
Q 1522 116 1759 116 
L 1925 116 
L 1925 0 
L 109 0 
L 109 116 
L 269 116 
Q 538 116 653 291 
Q 719 388 719 750 
L 719 3488 
Q 719 3888 631 3984 
Q 509 4122 269 4122 
L 109 4122 
L 109 4238 
L 1653 4238 
Q 2328 4238 2648 4139 
Q 2969 4041 3192 3777 
Q 3416 3513 3416 3147 
Q 3416 2756 3161 2468 
Q 2906 2181 2372 2063 
L 3247 847 
Q 3547 428 3762 290 
Q 3978 153 4325 116 
L 4325 0 
z
M 1316 2178 
Q 1375 2178 1419 2176 
Q 1463 2175 1491 2175 
Q 2097 2175 2405 2437 
Q 2713 2700 2713 3106 
Q 2713 3503 2464 3751 
Q 2216 4000 1806 4000 
Q 1625 4000 1316 3941 
L 1316 2178 
z
" transform="scale(0.015625)"/>
      </defs>
      <use xlink:href="#TimesNewRomanPSMT-39"/>
      <use xlink:href="#TimesNewRomanPSMT-35" transform="translate(50 0)"/>
      <use xlink:href="#TimesNewRomanPSMT-25" transform="translate(100 0)"/>
      <use xlink:href="#TimesNewRomanPSMT-20" transform="translate(183.300781 0)"/>
      <use xlink:href="#TimesNewRomanPSMT-43" transform="translate(208.300781 0)"/>
      <use xlink:href="#TimesNewRomanPSMT-49" transform="translate(275 0)"/>
      <use xlink:href="#TimesNewRomanPSMT-20" transform="translate(308.300781 0)"/>
      <use xlink:href="#TimesNewRomanPSMT-2b" transform="translate(333.300781 0)"/>
      <use xlink:href="#TimesNewRomanPSMT-20" transform="translate(389.697266 0)"/>
      <use xlink:href="#TimesNewRomanPSMT-49" transform="translate(414.697266 0)"/>
      <use xlink:href="#TimesNewRomanPSMT-51" transform="translate(447.998047 0)"/>
      <use xlink:href="#TimesNewRomanPSMT-52" transform="translate(520.214844 0)"/>
     </g>
    </g>
   </g>
  </g>
 </g>
 <defs>
  <clipPath id="p2fe572eb2a">
   <rect x="71.77125" y="42.0258" width="467.775" height="312.172"/>
  </clipPath>
 </defs>
</svg>
